<?xml version="1.0" standalone="no"?><!DOCTYPE svg PUBLIC "-//W3C//DTD SVG 1.1//EN" "http://www.w3.org/Graphics/SVG/1.1/DTD/svg11.dtd"><svg t="1658110945241" class="icon" viewBox="0 0 1024 1024" version="1.1" xmlns="http://www.w3.org/2000/svg" p-id="6067" xmlns:xlink="http://www.w3.org/1999/xlink" width="200" height="200"><defs><style type="text/css"></style></defs><path d="M313.9356448 1012.62222187c-69.4499552-139.53706667-32.90453333-219.81866667 21.9363552-293.04604374 58.48177813-83.7404448 73.0908448-163.97653333 73.0908448-163.97653333s47.5136 55.84213333 29.26364373 146.54577707c80.41813333-87.2448 95.0272-226.78186667 84.05902294-279.11964374 182.77262187 122.10631147 263.1907552 390.7584 157.19537706 586.09208854 562.88142187-306.9724448 138.89991147-763.99502187 65.76355627-812.8284448 25.6227552 52.33777813 29.2636448 139.53706667-21.93635627 181.4072896C639.24906667 70.6787552 430.8992 11.37777813 430.8992 11.37777813c25.5772448 157.01333333-87.69991147 327.95306667-197.38168853 457.02257707-3.64088853-62.80533333-7.28177813-104.6755552-43.87271147-167.48088853-7.28177813 115.14311147-98.66808853 205.8467552-124.24533333 320.98986666-32.90453333 157.01333333 25.5772448 268.60657813 248.53617813 390.71288854z" fill="#FF4800" p-id="6068"></path></svg>